PathFileType	4	(X/Y/Z)	F:\MotionCapture\20160217\3\Generated_files\2_Test02-Dynamic.trc
DataRate	CameraRate	NumFrames	NumMarkers	Units	OrigDataRate	OrigDataStartFrame	OrigNumFrames
120.00	120.00	       4	39	mm	120.00	392	       627
Frame#	Time	Top.Head			Front.Head			Rear.Head			R.Shoulder			R.Offset			R.Elbow			R.Wrist			L.Shoulder			L.Elbow			L.Wrist			R.ASIS			L.ASIS			V.Sacral			R.Thigh			R.Knee			R.Shank			R.Ankle			R.Heel			R.Toe			L.Thigh			L.Knee			L.Shank			L.Ankle			L.Heel			L.Toe			R1			R2			R3			R4			R5			R6			R7			L1			L2			L3			L4			L5			L6			L7			V_Mid_ASIS			V_Pelvis_Origin			V_R.Hip_JC			V_L.Hip_JC			V_R.Knee_JC			V_L.Knee_JC			V_R.Ankle_JC			V_L.Ankle_JC			V_Mid_Hip			V_Mid_Shoulder			V_R.Hand			V_L.Hand			V_R.Toe_Offset_Static			V_L.Toe_Offset_Static			V_R.Toe_Offset			V_L.Toe_Offset			
		X1	Y1	Z1	X2	Y2	Z2	X3	Y3	Z3	X4	Y4	Z4	X5	Y5	Z5	X6	Y6	Z6	X7	Y7	Z7	X8	Y8	Z8	X9	Y9	Z9	X10	Y10	Z10	X11	Y11	Z11	X12	Y12	Z12	X13	Y13	Z13	X14	Y14	Z14	X15	Y15	Z15	X16	Y16	Z16	X17	Y17	Z17	X18	Y18	Z18	X19	Y19	Z19	X20	Y20	Z20	X21	Y21	Z21	X22	Y22	Z22	X23	Y23	Z23	X24	Y24	Z24	X25	Y25	Z25	X26	Y26	Z26	X27	Y27	Z27	X28	Y28	Z28	X29	Y29	Z29	X30	Y30	Z30	X31	Y31	Z31	X32	Y32	Z32	X33	Y33	Z33	X34	Y34	Z34	X35	Y35	Z35	X36	Y36	Z36	X37	Y37	Z37	X38	Y38	Z38	X39	Y39	Z39	

392	3.258	-2499.80762	207.29733	1675.41089	-2586.08203	152.62193	1580.40881	-2390.19287	248.23828	1619.29932	-2403.46851	401.11755	1365.80322	-2265.43750	129.79692	1229.49976	-2306.40454	477.03302	1051.79883	-2342.51294	483.96271	790.45850	-2415.30835	-6.28585	1388.25989	-2468.57397	-134.46817	1080.58386	-2691.14233	-110.62531	952.45331	-2514.21851	316.07553	922.69867	-2480.14380	30.76163	905.64789	-2270.38892	206.63763	894.90845	-2654.70044	273.19495	594.92291	-2627.83276	321.95679	465.20905	-2651.67993	241.49452	235.56482	-2620.88379	316.90106	65.30901	-2551.55981	262.24402	41.02866	-2764.48975	292.04703	38.83334	-2474.90894	36.53146	563.24152	-2323.38745	4.38331	428.37140	-2253.01270	79.64808	301.91589	-1995.68726	65.31257	181.37416	-1963.28284	133.65320	221.82780	-2043.11609	66.27997	49.51824	-2808.58105	270.17374	35.42218	-2769.29663	252.97571	42.71497	-2667.89307	223.76187	50.80842	-2590.95654	227.78664	40.13478	-2584.30688	302.16315	40.21561	-2660.72168	323.42236	34.80040	-2726.90015	337.76501	34.58778	-2076.42432	87.70850	32.73948	-2059.63599	102.76752	48.13247	-2039.20728	142.02061	125.58474	-1992.78748	156.89032	192.17525	-1962.81506	91.50604	198.23079	-1981.08362	54.48280	124.89532	-2009.39978	42.67301	71.93156	
393	3.267	-2510.11670	207.87204	1676.89514	-2596.66016	152.89452	1582.38696	-2400.68359	248.99139	1620.79517	-2415.09009	401.78354	1368.12280	-2276.18921	130.95827	1232.09106	-2322.78394	478.59311	1052.15234	-2363.02075	485.09872	791.66254	-2425.93823	-5.61979	1389.92432	-2474.39258	-132.85986	1080.82642	-2694.75439	-111.39922	947.90826	-2525.20996	317.50339	924.27258	-2491.18481	32.20176	907.06622	-2282.15479	206.81406	895.74213	-2663.52319	273.03091	595.71259	-2634.97412	322.49930	465.72354	-2655.02393	241.68657	235.66327	-2620.85352	316.66528	65.05627	-2551.49072	261.85471	40.93954	-2764.81372	292.06192	38.00790	-2492.38525	35.75552	565.21259	-2344.34961	4.08570	426.89774	-2270.65649	80.11972	303.14929	-2010.98560	65.75626	189.29578	-1982.80347	134.51335	233.09705	-2049.87646	66.56523	54.56563	-2810.08545	267.55212	36.41197	-2769.71606	252.75902	43.02942	-2667.89795	223.67456	50.73111	-2590.64722	227.80348	40.28855	-2584.25903	302.08099	40.27948	-2660.73438	323.36102	34.78479	-2727.26294	337.16113	34.77645	-2081.05420	86.95934	32.45664	-2066.61670	101.67891	51.34352	-2052.08301	141.85068	131.07359	-2010.00354	158.22147	200.69537	-1979.69031	93.39999	208.59543	-1993.72913	55.33984	135.62079	-2018.30713	42.54578	80.86185	
394	3.275	-2520.34839	208.60286	1679.18945	-2606.82617	153.37659	1584.49487	-2411.75391	250.19719	1622.47986	-2426.66235	402.26138	1370.24573	-2287.33325	131.95557	1233.61829	-2338.69263	479.83868	1053.04639	-2383.93579	487.54031	793.54163	-2436.22461	-5.30241	1391.46558	-2480.43018	-131.78088	1081.57849	-2697.79004	-112.55080	942.99323	-2535.95703	319.33145	925.90594	-2502.08398	33.66198	909.05402	-2293.60547	208.41557	897.43683	-2671.04956	272.59494	596.15051	-2641.46851	322.54871	465.81711	-2658.03906	242.33775	235.38542	-2620.77710	316.69238	65.39281	-2551.45068	261.97128	41.20702	-2764.95361	292.14606	37.78900	-2509.56909	36.32383	567.22784	-2365.41602	3.75383	426.35129	-2289.70557	80.51833	304.62231	-2028.02197	66.29977	197.71529	-2002.36658	137.03830	242.04019	-2058.42310	66.59450	60.31099	-2810.61792	266.78958	36.26800	-2769.71313	252.82860	42.89227	-2667.73340	224.01472	50.41177	-2590.69336	227.79230	40.48154	-2584.24902	302.06079	40.39913	-2660.67261	323.41379	34.72649	-2727.45728	336.90680	34.83832	-2086.87109	85.43800	32.23616	-2075.31030	100.58134	54.17931	-2066.57349	142.85931	137.12833	-2028.47412	159.83759	208.95105	-1997.86743	94.81948	218.73537	-2007.75977	56.50893	146.01060	-2029.18982	42.52533	90.28386	
395	3.283	-2530.68848	208.88879	1680.92700	-2617.08960	153.46220	1586.97815	-2422.35864	251.00708	1624.47131	-2438.16284	402.78555	1372.74634	-2296.32300	132.07281	1236.10413	-2354.30518	481.10352	1054.22046	-2404.51709	487.92313	795.81250	-2446.27344	-4.59076	1393.56641	-2486.74878	-130.58327	1082.67737	-2700.26318	-113.26796	938.06702	-2547.01196	320.49359	927.81378	-2511.50562	33.49344	910.06256	-2304.46631	208.65706	898.59949	-2678.49805	271.73773	595.97845	-2647.06714	323.17297	465.73154	-2661.16602	242.99461	235.03293	-2620.82446	317.27850	66.06266	-2551.38623	261.98654	41.22699	-2765.01343	292.16171	37.65107	-2526.62671	37.84928	569.99054	-2386.64429	3.29260	426.03882	-2309.33716	81.00872	306.47479	-2045.31836	67.38300	204.99812	-2023.64929	138.89471	250.84026	-2068.76172	65.57465	66.54659	-2809.39185	269.35312	34.73544	-2769.55981	252.98445	42.72841	-2667.67432	224.01869	50.34073	-2590.68530	227.80392	40.40474	-2584.15405	302.09616	40.32491	-2660.56396	323.22382	34.51806	-2727.26733	337.48563	34.53779	-2093.77881	83.40202	31.57866	-2085.34229	99.04916	57.57361	-2082.19678	143.18321	142.57196	-2048.26343	161.27029	216.13226	-2017.29309	97.21133	227.99367	-2023.25256	58.61972	155.38048	-2040.48975	43.44453	98.30274	
